# xmcd CD database file
#
# Track frame offsets:
#	150
#	17620
#	29507
#	45490
#	62561
#	85142
#	106712
#	126576
#	140232
#	162623
#	175058
#	185915
#	205354
#	227429
#	236392
#
# Disc length: 3269 seconds
#
# Revision: 2
# Processed by: cddbd v1.5.2PL0 Copyright (c) Steve Scherf et al.
# Submitted via: CDex 1.51
#
DISCID=ce0cc30f
DTITLE=Jean-Jacques Milteau - Bastille Blues
DYEAR=1999
DGENRE=Blues
TTITLE0=Le Wolf
TTITLE1=Boogie Mix
TTITLE2=Réunion
TTITLE3=Au Bellevue I
TTITLE4=Elegant Luther
TTITLE5=Rue Du Rendez-vous
TTITLE6=Sweet 70'
TTITLE7=Insouciance
TTITLE8=Jurong Bird Park
TTITLE9=Bastille Blues
TTITLE10=Au Bellevue II
TTITLE11=Taj Mahal
TTITLE12=Chicken
TTITLE13=Ruine Babines Blues
TTITLE14=A Vous De Jouer
EXTD=YEAR: 1999
EXTT0=
EXTT1=
EXTT2=
EXTT3=
EXTT4=
EXTT5=
EXTT6=
EXTT7=
EXTT8=
EXTT9=
EXTT10=
EXTT11=
EXTT12=
EXTT13=
EXTT14=
PLAYORDER=
